<?xml version="1.0" encoding="UTF-8" standalone="no" ?>
<!DOCTYPE svg PUBLIC "-//W3C//DTD SVG 1.1//EN" "http://www.w3.org/Graphics/SVG/1.1/DTD/svg11.dtd">
<svg xmlns="http://www.w3.org/2000/svg" xmlns:xlink="http://www.w3.org/1999/xlink" version="1.1" width="452" height="63" viewBox="0 0 452 63" xml:space="preserve">
<desc>Created with Fabric.js 5.2.4</desc>
<defs>
</defs>
<g transform="matrix(1 0 0 1 226 31.5)" id="fb9b4b33-eebd-4244-8eda-c5e7f22613a7"  >
<rect style="stroke: none; stroke-width: 1; stroke-dasharray: none; stroke-linecap: butt; stroke-dashoffset: 0; stroke-linejoin: miter; stroke-miterlimit: 4; fill: rgb(255,255,255); fill-rule: nonzero; opacity: 1; visibility: hidden;" vector-effect="non-scaling-stroke"  x="-226" y="-31.5" rx="0" ry="0" width="452" height="63" />
</g>
<g transform="matrix(Infinity NaN NaN Infinity 0 0)" id="0d26ff08-3169-45ec-b95a-bf968dbe2607"  >
</g>
<g transform="matrix(1 0 0 1 91.55 32.97)" clip-path="url(#CLIPPATH_3)"  >
<clipPath id="CLIPPATH_3" >
	<rect transform="matrix(-1 -0.06 -0.06 1 0.27 -0.04)" id="clip0_546_21" x="-31.29345" y="-24.0719" rx="0" ry="0" width="62.5869" height="48.1438" />
</clipPath>
<path style="stroke: none; stroke-width: 1; stroke-dasharray: none; stroke-linecap: butt; stroke-dashoffset: 0; stroke-linejoin: miter; stroke-miterlimit: 4; fill: rgb(24,156,171); fill-rule: nonzero; opacity: 1;" vector-effect="non-scaling-stroke"  transform=" translate(-33.26, -36.29)" d="M 13.8858 51.0783 C 15.9379 37.4227 27.0537 26.302 38.3594 26.304 C 38.4251 26.6525 38.5721 27.0921 38.4645 27.4301 C 36.6349 33.1752 39.0587 37.6299 42.9921 41.574 C 46.0196 44.6875 49.517 47.2268 53.6997 48.516 C 54.8969 48.8475 56.0942 49.1791 57.3939 49.2586 C 62.1541 49.6356 64.6613 47.0326 64.4299 42.2813 C 64.2773 39.0851 62.8751 36.4154 60.9372 33.9714 C 57.6313 29.7212 53.3041 26.5283 48.2209 24.3227 C 47.2021 23.9159 46.1834 23.5091 44.7419 22.9043 C 49.6854 17.4356 56.37 16.2076 62.7657 14.0146 C 61.6393 13.9457 60.5234 13.7053 59.3866 13.808 C 53.5028 14.7404 47.9997 16.5574 43.5786 20.5937 C 42.2921 21.721 41.1133 22.5102 39.2072 22.3937 C 31.8372 22.0294 25.6594 24.9249 20.477 30.0344 C 16.5914 33.8451 13.6223 38.3147 11.5747 43.3575 C 11.0628 44.6182 10.5509 45.8788 9.64526 47.8907 C 7.27669 43.9561 5.22324 40.5576 3.16978 37.1591 C 2.90461 37.229 2.63419 37.3848 2.36901 37.4547 C 2.24041 38.1359 1.92803 38.9781 2.15125 39.5947 C 3.18596 42.5864 4.22066 45.5781 5.43389 48.4946 C 6.57622 51.1483 7.89708 53.7269 9.03941 56.3806 C 10.187 58.9486 11.5366 59.634 13.3087 57.6751 C 16.383 54.3316 19.1264 50.7095 21.9565 47.0927 C 22.3345 46.599 22.0456 45.6339 22.0062 44.8563 C 21.1293 44.975 20.0081 44.8203 19.4568 45.3034 C 17.5219 47.0801 15.9283 48.9637 13.8858 51.0783 Z M 41.9223 26.3494 C 50.3243 28.3272 56.668 32.6769 60.4572 40.402 C 61.224 42.0853 61.7913 44.1872 60.1531 45.379 C 59.0609 46.1736 56.9709 46.2181 55.5085 45.9565 C 49.9291 44.7541 45.7857 41.4002 42.4036 36.973 C 40.0745 33.8161 39.494 30.5076 41.9223 26.3494 Z" stroke-linecap="round" />
</g>
<g transform="matrix(0.9 0 0 0.9 276.87 17.88)" style="" id="fbb2cbd2-3fb8-4f3f-827c-28c65d2268ae"  >
		<text xml:space="preserve" font-family="Lato" font-size="23" font-style="normal" font-weight="400" style="stroke: none; stroke-width: 1; stroke-dasharray: none; stroke-linecap: butt; stroke-dashoffset: 0; stroke-linejoin: miter; stroke-miterlimit: 4; fill: rgb(24,156,171); fill-rule: nonzero; opacity: 1; white-space: pre;" ><tspan x="-139.31" y="7.23" >Available in Twin Cities, MN</tspan></text>
</g>
</svg>
