<svg xmlns="http://www.w3.org/2000/svg" xmlns:xlink="http://www.w3.org/1999/xlink" version="1.1" width="112" height="112" viewBox="0 0 112 112" xml:space="preserve">
<desc>Created with Fabric.js 3.5.0</desc>
<defs>
</defs>
<rect x="0" y="0" width="100%" height="100%" fill="rgba(255,255,255,0)"/>
<g transform="matrix(7 0 0 7 56.5 56.5)" id="399557">
<circle style="stroke: none; stroke-width: 1; stroke-dasharray: none; stroke-linecap: butt; stroke-dashoffset: 0; stroke-linejoin: miter; stroke-miterlimit: 4; is-custom-font: none; font-file-url: none; fill: rgb(251,189,8); fill-rule: nonzero; opacity: 1;" vector-effect="non-scaling-stroke" cx="0" cy="0" r="8"/>
</g>
<g transform="matrix(1.263 0 0 1.263 60.916 55.9993)" id="133250">
<g style="" vector-effect="non-scaling-stroke">
		<g transform="matrix(1 0 0 1 9.5 -16)" id="Layer_1_1_">
<path style="stroke: none; stroke-width: 1; stroke-dasharray: none; stroke-linecap: butt; stroke-dashoffset: 0; stroke-linejoin: miter; stroke-miterlimit: 4; is-custom-font: none; font-file-url: none; fill: rgb(6,45,62); fill-rule: nonzero; opacity: 1;" transform=" translate(-41.5, -16)" d="M 46 22 h -6.671 l 5.557 -6.352 C 45.604 14.828 46 13.775 46 12.685 V 12.5 c 0 -2.481 -2.019 -4.5 -4.5 -4.5 S 37 10.019 37 12.5 V 14 h 2 v -1.5 c 0 -1.379 1.121 -2.5 2.5 -2.5 s 2.5 1.121 2.5 2.5 v 0.185 c 0 0.606 -0.22 1.19 -0.619 1.646 L 37 21.624 V 24 h 9 V 22 z" stroke-linecap="round"/>
</g>
		<g transform="matrix(1 0 0 1 21 -16)" id="Layer_1_1_">
<path style="stroke: none; stroke-width: 1; stroke-dasharray: none; stroke-linecap: butt; stroke-dashoffset: 0; stroke-linejoin: miter; stroke-miterlimit: 4; is-custom-font: none; font-file-url: none; fill: rgb(6,45,62); fill-rule: nonzero; opacity: 1;" transform=" translate(-53, -16)" d="M 54 24 h 2 v -3 h 2 v -2 h -2 V 8 h -2.618 L 48 18.764 V 21 h 6 V 24 z M 50.118 19 L 54 11.236 V 19 H 50.118 z" stroke-linecap="round"/>
</g>
		<g transform="matrix(1 0 0 1 0 0)" id="Layer_1_1_">
<path style="stroke: none; stroke-width: 1; stroke-dasharray: none; stroke-linecap: butt; stroke-dashoffset: 0; stroke-linejoin: miter; stroke-miterlimit: 4; is-custom-font: none; font-file-url: none; fill: rgb(6,45,62); fill-rule: nonzero; opacity: 1;" transform=" translate(-32, -32)" d="M 50.405 32.627 C 57.596 31.061 63 24.653 63 17 c 0 -8.822 -7.178 -16 -16 -16 c -7.653 0 -14.061 5.404 -15.627 12.595 C 29.608 13.207 27.807 13 26 13 C 12.215 13 1 24.215 1 38 s 11.215 25 25 25 s 25 -11.215 25 -25 C 51 36.193 50.793 34.392 50.405 32.627 z M 47 3 c 7.72 0 14 6.28 14 14 s -6.28 14 -14 14 s -14 -6.28 -14 -14 S 39.28 3 47 3 z M 44.961 37 H 43 v 2 h 1.949 c -0.235 4.484 -2.024 8.553 -4.847 11.688 l -1.375 -1.375 l -1.414 1.414 l 1.375 1.375 c -3.135 2.824 -7.204 4.612 -11.688 4.847 V 55 h -2 v 1.949 c -4.484 -0.235 -8.553 -2.024 -11.688 -4.847 l 1.375 -1.375 l -1.414 -1.414 l -1.375 1.375 C 9.074 47.553 7.286 43.484 7.051 39 H 9 v -2 H 7.051 c 0.235 -4.484 2.024 -8.553 4.847 -11.688 l 1.375 1.375 l 1.414 -1.414 l -1.375 -1.375 c 3.135 -2.824 7.204 -4.612 11.688 -4.847 V 21 h 2 v -1.961 c 1.438 0.076 2.862 0.318 4.255 0.72 c 1.156 6.611 6.374 11.829 12.986 12.986 C 44.642 34.138 44.884 35.562 44.961 37 z M 26 61 C 13.317 61 3 50.683 3 38 s 10.317 -23 23 -23 c 1.706 0 3.407 0.201 5.072 0.577 C 31.03 16.047 31 16.52 31 17 c 0 0.209 0.023 0.413 0.031 0.621 C 29.381 17.212 27.695 17 26 17 C 14.421 17 5 26.421 5 38 s 9.421 21 21 21 s 21 -9.421 21 -21 c 0 -1.695 -0.212 -3.381 -0.621 -5.031 C 46.587 32.977 46.791 33 47 33 c 0.48 0 0.953 -0.03 1.423 -0.072 C 48.799 34.593 49 36.294 49 38 C 49 50.683 38.683 61 26 61 z" stroke-linecap="round"/>
</g>
		<g transform="matrix(1 0 0 1 -2.6465 3.3535)" id="Layer_1_1_">
<path style="stroke: none; stroke-width: 1; stroke-dasharray: none; stroke-linecap: butt; stroke-dashoffset: 0; stroke-linejoin: miter; stroke-miterlimit: 4; is-custom-font: none; font-file-url: none; fill: rgb(6,45,62); fill-rule: nonzero; opacity: 1;" transform=" translate(-29.3535, -35.3535)" d="M 29 38 c 0 -1.302 -0.839 -2.402 -2 -2.816 V 23 h -2 v 12.184 c -1.161 0.414 -2 1.514 -2 2.816 c 0 1.654 1.346 3 3 3 c 0.462 0 0.894 -0.113 1.285 -0.301 l 7.008 7.008 l 1.414 -1.414 l -7.008 -7.008 C 28.887 38.894 29 38.462 29 38 z M 25 38 c 0 -0.552 0.448 -1 1 -1 s 1 0.448 1 1 s -0.448 1 -1 1 S 25 38.552 25 38 z" stroke-linecap="round"/>
</g>
		<g transform="matrix(1 0 0 1 20.855 15.35)" id="Layer_1_1_">
<path style="stroke: none; stroke-width: 1; stroke-dasharray: none; stroke-linecap: butt; stroke-dashoffset: 0; stroke-linejoin: miter; stroke-miterlimit: 4; is-custom-font: none; font-file-url: none; fill: rgb(6,45,62); fill-rule: nonzero; opacity: 1;" transform=" translate(-52.855, -47.35)" d="M 56 35 c -1.654 0 -3 1.346 -3 3 c 0 1.251 0.771 2.324 1.862 2.773 c -0.627 6.584 -3.499 12.781 -8.152 17.527 l 1.428 1.4 c 4.999 -5.098 8.074 -11.763 8.725 -18.842 C 58.095 40.485 59 39.353 59 38 C 59 36.346 57.654 35 56 35 z M 56 39 c -0.552 0 -1 -0.448 -1 -1 s 0.448 -1 1 -1 s 1 0.448 1 1 S 56.552 39 56 39 z" stroke-linecap="round"/>
</g>
		<g transform="matrix(1 0 0 1 -15.038 -21.1335)" id="Layer_1_1_">
<path style="stroke: none; stroke-width: 1; stroke-dasharray: none; stroke-linecap: butt; stroke-dashoffset: 0; stroke-linejoin: miter; stroke-miterlimit: 4; is-custom-font: none; font-file-url: none; fill: rgb(6,45,62); fill-rule: nonzero; opacity: 1;" transform=" translate(-16.962, -10.8665)" d="M 6.283 16.733 c 4.658 -4.321 10.651 -6.978 16.949 -7.579 C 23.686 10.237 24.755 11 26 11 c 1.654 0 3 -1.346 3 -3 s -1.346 -3 -3 -3 c -1.352 0 -2.485 0.905 -2.858 2.137 c -6.771 0.624 -13.214 3.489 -18.218 8.13 L 6.283 16.733 z M 26 7 c 0.552 0 1 0.448 1 1 s -0.448 1 -1 1 s -1 -0.448 -1 -1 S 25.448 7 26 7 z" stroke-linecap="round"/>
</g>
</g>
</g>
</svg>