<svg xmlns="http://www.w3.org/2000/svg" xmlns:xlink="http://www.w3.org/1999/xlink" version="1.1" width="112" height="112" viewBox="0 0 112 112" xml:space="preserve">
<desc>Created with Fabric.js 3.5.0</desc>
<defs>
</defs>
<rect x="0" y="0" width="100%" height="100%" fill="rgba(255,255,255,0)"/>
<g transform="matrix(7 0 0 7 56.5 56.5)" id="399557">
<circle style="stroke: none; stroke-width: 1; stroke-dasharray: none; stroke-linecap: butt; stroke-dashoffset: 0; stroke-linejoin: miter; stroke-miterlimit: 4; is-custom-font: none; font-file-url: none; fill: rgb(251,189,8); fill-rule: nonzero; opacity: 1;" vector-effect="non-scaling-stroke" cx="0" cy="0" r="8"/>
</g>
<g transform="matrix(3.2743 0 0 3.2743 55.9999 55.9999)" id="784086">
<g style="" vector-effect="non-scaling-stroke">
		<g transform="matrix(1 0 0 1 5.85 0.85)" id="Layer_1">
<path style="stroke: none; stroke-width: 1; stroke-dasharray: none; stroke-linecap: butt; stroke-dashoffset: 0; stroke-linejoin: miter; stroke-miterlimit: 4; is-custom-font: none; font-file-url: none; fill: rgb(6,45,62); fill-rule: nonzero; opacity: 1;" transform=" translate(-17.85, -12.85)" d="M 17.8 6 c 2 2.9 3.9 5.2 4.2 7.4 c -1.3 4.4 -4.5 6.3 -4.5 6.3 c 0.2 -3.2 -1.2 -5.5 -1.2 -5.5 s -1.5 0 -2.6 -1 c 0 -0.6 4.8 -2.3 4.8 -2.3 S 17.8 6.7 17.8 6 z" stroke-linecap="round"/>
</g>
		<g transform="matrix(1 0 0 1 -4.1 0.85)" id="Layer_1">
<path style="stroke: none; stroke-width: 1; stroke-dasharray: none; stroke-linecap: butt; stroke-dashoffset: 0; stroke-linejoin: miter; stroke-miterlimit: 4; is-custom-font: none; font-file-url: none; fill: rgb(6,45,62); fill-rule: nonzero; opacity: 1;" transform=" translate(-7.9, -12.85)" d="M 6.2 6 c -2 2.9 -3.9 5.2 -4.2 7.4 c 1.4 3.8 4.5 6.3 4.5 6.3 c -0.6 -2.5 1.1 -4.8 1.1 -4.8 s 4.7 0.1 6.2 -1.7 c -3.6 0.3 -8.3 -2.2 -8.3 -2.2 S 6.2 6.7 6.2 6 z" stroke-linecap="round"/>
</g>
		<g transform="matrix(1 0 0 1 0 -3.75)" id="Layer_1">
<path style="stroke: none; stroke-width: 1; stroke-dasharray: none; stroke-linecap: butt; stroke-dashoffset: 0; stroke-linejoin: miter; stroke-miterlimit: 4; is-custom-font: none; font-file-url: none; fill: rgb(6,45,62); fill-rule: nonzero; opacity: 1;" transform=" translate(-12, -8.25)" d="M 12 5 c 1.9 0 3.4 0.4 4.3 0.7 l 0.6 5.4 c -1 0.2 -2.9 0.4 -4.9 0.4 c -2 0 -3.9 -0.2 -4.9 -0.4 l 0.6 -5.4 C 8.6 5.4 10.1 5 12 5 M 12 3 C 8.2 3 5.8 4.4 5.8 4.4 L 5 11.9 c 0 0.4 0.2 0.7 0.6 0.9 c 0.7 0.3 3.7 0.7 6.4 0.7 s 5.8 -0.4 6.4 -0.7 c 0.4 -0.2 0.6 -0.5 0.6 -0.9 l -0.8 -7.5 C 18.2 4.4 15.8 3 12 3 L 12 3 z" stroke-linecap="round"/>
</g>
		<g transform="matrix(1 0 0 1 0 -3)" id="Layer_1">
<polygon style="stroke: none; stroke-width: 1; stroke-dasharray: none; stroke-linecap: butt; stroke-dashoffset: 0; stroke-linejoin: miter; stroke-miterlimit: 4; is-custom-font: none; font-file-url: none; fill: rgb(6,45,62); fill-rule: nonzero; opacity: 1;" points="1,-3 -1,-3 -1,-1 -3,-1 -3,1 -1,1 -1,3 1,3 1,1 3,1 3,-1 1,-1 1,-3 "/>
</g>
</g>
</g>
</svg>