<svg xmlns="http://www.w3.org/2000/svg" xmlns:xlink="http://www.w3.org/1999/xlink" version="1.1" width="112" height="112" viewBox="0 0 112 112" xml:space="preserve">
<desc>Created with Fabric.js 3.5.0</desc>
<defs>
</defs>
<rect x="0" y="0" width="100%" height="100%" fill="rgba(255,255,255,0)"/>
<g transform="matrix(7 0 0 7 56.5 56.5)" id="399557">
<circle style="stroke: none; stroke-width: 1; stroke-dasharray: none; stroke-linecap: butt; stroke-dashoffset: 0; stroke-linejoin: miter; stroke-miterlimit: 4; is-custom-font: none; font-file-url: none; fill: rgb(251,189,8); fill-rule: nonzero; opacity: 1;" vector-effect="non-scaling-stroke" cx="0" cy="0" r="8"/>
</g>
<g transform="matrix(0.098 0 0 0.098 56 56)" id="524646">
<g style="" vector-effect="non-scaling-stroke">
		<g transform="matrix(1.7326 0 0 1.7326 18.3968 -4.0978)" id="Layer_1">
<path style="stroke: none; stroke-width: 1; stroke-dasharray: none; stroke-linecap: butt; stroke-dashoffset: 0; stroke-linejoin: miter; stroke-miterlimit: 4; is-custom-font: none; font-file-url: none; fill: rgb(6,45,62); fill-rule: nonzero; opacity: 1;" transform=" translate(-241.487, -228.5035)" d="M 232.957 224.947 c -0.934 2.085 -2.057 4.026 -3.333 5.818 v 39.286 c 8.667 -3.736 17.917 -6.366 27.573 -7.717 v -61.591 c 0 -7.614 -6.172 -13.787 -13.786 -13.787 h -17.634 C 235.595 196.584 238.911 211.666 232.957 224.947 z" stroke-linecap="round"/>
</g>
		<g transform="matrix(1.7326 0 0 1.7326 273.9995 252.867)" id="Layer_1">
<path style="stroke: none; stroke-width: 1; stroke-dasharray: none; stroke-linecap: butt; stroke-dashoffset: 0; stroke-linejoin: miter; stroke-miterlimit: 4; is-custom-font: none; font-file-url: none; fill: rgb(6,45,62); fill-rule: nonzero; opacity: 1;" transform=" translate(-389.0136, -376.8161)" d="M 411.819 302.337 l -42.552 -3.256 l 0.026 -4.394 l -21.813 -2.793 c 8.806 8.565 16.159 18.614 21.652 29.741 c 2.929 5.933 5.33 12.171 7.139 18.655 l 10.586 0.81 l -14.536 97.235 c -1.725 11.065 5.847 21.433 16.911 23.159 c 11.1 1.725 21.438 -5.875 23.159 -16.912 l 17.914 -118.903 c 0.871 -5.586 -0.63 -11.282 -4.14 -15.713 C 422.657 305.533 417.456 302.768 411.819 302.337 z" stroke-linecap="round"/>
</g>
		<g transform="matrix(1.7326 0 0 1.7326 166.9974 -205.8998)" id="Layer_1">
<circle style="stroke: none; stroke-width: 1; stroke-dasharray: none; stroke-linecap: butt; stroke-dashoffset: 0; stroke-linejoin: miter; stroke-miterlimit: 4; is-custom-font: none; font-file-url: none; fill: rgb(6,45,62); fill-rule: nonzero; opacity: 1;" cx="0" cy="0" r="37.296"/>
</g>
		<g transform="matrix(1.7326 0 0 1.7326 213.4885 -9.0266)" id="Layer_1">
<path style="stroke: none; stroke-width: 1; stroke-dasharray: none; stroke-linecap: butt; stroke-dashoffset: 0; stroke-linejoin: miter; stroke-miterlimit: 4; is-custom-font: none; font-file-url: none; fill: rgb(6,45,62); fill-rule: nonzero; opacity: 1;" transform=" translate(-354.0879, -225.6586)" d="M 419.252 249.978 l -57.977 -7.425 l -24.282 -49.115 l 28.485 32.618 l 4.219 0.54 l 0.198 -33.305 c 0.083 -13.914 -11.13 -25.261 -25.044 -25.344 c -1.091 -0.007 -42.995 -0.256 -44.928 -0.267 c -13.914 -0.083 -25.261 11.13 -25.344 25.044 l -0.408 68.581 c 16.294 0.289 31.719 4.202 45.501 10.97 l -12.975 -63.862 l 28.298 57.238 c 2.508 5.072 7.389 8.553 13.001 9.272 l 66.963 8.576 c 9.258 1.185 17.721 -5.358 18.907 -14.614 C 435.052 259.628 428.509 251.163 419.252 249.978 z" stroke-linecap="round"/>
</g>
		<g transform="matrix(1.7326 0 0 1.7326 71.6706 239.8041)" id="Layer_1">
<path style="stroke: none; stroke-width: 1; stroke-dasharray: none; stroke-linecap: butt; stroke-dashoffset: 0; stroke-linejoin: miter; stroke-miterlimit: 4; is-custom-font: none; font-file-url: none; fill: rgb(6,45,62); fill-rule: nonzero; opacity: 1;" transform=" translate(-272.2345, -369.2765)" d="M 272.234 277.366 c -50.68 0 -91.91 41.231 -91.91 91.911 c 0 50.68 41.23 91.91 91.91 91.91 c 50.68 0 91.911 -41.23 91.911 -91.91 S 322.914 277.366 272.234 277.366 z M 328.149 329.035 c -17.373 10.03 -19.715 11.382 -37.082 21.409 c 19.465 -33.715 2.018 -3.495 21.409 -37.082 C 318.503 317.712 323.799 323.008 328.149 329.035 z M 279.127 300.69 c 7.567 0.755 14.768 2.753 21.419 5.762 c -19.187 33.232 -3.606 6.246 -21.419 37.099 C 279.127 305.477 279.127 324.796 279.127 300.69 z M 265.34 300.69 c 0 22.477 0 20.409 0 42.86 c -11.25 -19.486 -10.203 -17.672 -21.418 -37.098 C 250.572 303.443 257.774 301.444 265.34 300.69 z M 231.992 313.362 c 10.03 17.373 11.383 19.715 21.409 37.082 c -17.423 -10.059 -19.636 -11.337 -37.082 -21.409 C 220.669 323.008 225.965 317.712 231.992 313.362 z M 209.409 340.965 c 19.435 11.221 17.647 10.188 37.1 21.419 c -22.448 0 -20.379 0 -42.862 0 C 204.402 354.817 206.4 347.616 209.409 340.965 z M 203.647 376.17 c 22.477 0 20.409 0 42.861 0 c -19.486 11.25 -17.678 10.207 -37.099 21.419 C 206.4 390.938 204.402 383.737 203.647 376.17 z M 216.319 409.519 c 17.373 -10.03 19.715 -11.383 37.082 -21.409 c -10.024 17.362 -11.383 19.715 -21.409 37.082 C 225.965 420.842 220.669 415.546 216.319 409.519 z M 265.34 437.864 c -7.566 -0.755 -14.768 -2.753 -21.419 -5.762 c 11.213 -19.422 10.175 -17.624 21.419 -37.098 C 265.34 417.446 265.34 415.382 265.34 437.864 z M 260.132 369.277 c 0 -6.673 5.429 -12.102 12.102 -12.102 c 6.673 0 12.101 5.429 12.101 12.102 c 0 6.673 -5.429 12.101 -12.101 12.101 C 265.561 381.378 260.132 375.95 260.132 369.277 z M 279.127 437.864 c 0 -22.477 0 -20.408 0 -42.861 c 11.25 19.486 10.207 17.678 21.419 37.099 C 293.895 435.111 286.694 437.109 279.127 437.864 z M 312.476 425.191 c -10.088 -17.473 -11.337 -19.636 -21.409 -37.082 c 13.133 7.582 22.945 13.247 37.082 21.409 C 323.799 415.546 318.503 420.841 312.476 425.191 z M 335.059 397.589 c -19.434 -11.22 -17.646 -10.188 -37.099 -21.419 c 22.448 0 20.378 0 42.861 0 C 340.066 383.737 338.068 390.938 335.059 397.589 z M 297.959 362.384 c 19.457 -11.233 17.668 -10.201 37.1 -21.419 c 3.009 6.651 5.007 13.853 5.762 21.419 C 318.344 362.384 320.412 362.384 297.959 362.384 z" stroke-linecap="round"/>
</g>
		<g transform="matrix(1.7326 0 0 1.7326 -162.3806 -335.0777)" id="Layer_1">
<circle style="stroke: none; stroke-width: 1; stroke-dasharray: none; stroke-linecap: butt; stroke-dashoffset: 0; stroke-linejoin: miter; stroke-miterlimit: 4; is-custom-font: none; font-file-url: none; fill: rgb(6,45,62); fill-rule: nonzero; opacity: 1;" cx="0" cy="0" r="37.471"/>
</g>
		<g transform="matrix(1.7326 0 0 1.7326 -185.1194 77.3542)" id="Layer_1">
<path style="stroke: none; stroke-width: 1; stroke-dasharray: none; stroke-linecap: butt; stroke-dashoffset: 0; stroke-linejoin: miter; stroke-miterlimit: 4; is-custom-font: none; font-file-url: none; fill: rgb(6,45,62); fill-rule: nonzero; opacity: 1;" transform=" translate(-124.0223, -275.5141)" d="M 145.498 263.185 l 0.067 0.005 l 3.2 -38.927 l -34.402 -15.423 l -6.292 -2.821 c -6.111 -2.74 -10.036 -8.387 -10.892 -14.565 l -7.733 -56.98 l 22.05 50.762 c 1.809 4.165 5.109 7.504 9.252 9.362 l 73.899 33.131 c 9.176 4.113 19.951 0.012 24.066 -9.167 c 4.114 -9.177 0.01 -19.952 -9.167 -24.066 l -67.459 -30.243 l -19.238 -44.288 l 23.898 29.272 l 7.893 3.538 l 2.45 -29.807 c 1.241 -15.094 -9.99 -28.336 -25.084 -29.577 l -48.738 -4.006 c -15.094 -1.241 -28.336 9.99 -29.577 25.084 L 44.703 254.9 c 0.136 0.94 11.671 76.128 11.815 77.067 L 28.517 434.102 c -3.191 11.639 3.657 23.661 15.296 26.852 c 11.636 3.19 23.661 -3.658 26.852 -15.296 l 29.233 -106.624 c 0.812 -2.96 0.991 -6.057 0.525 -9.091 L 89.478 258.58 l 8.022 0.659 l 26.881 73.289 l -21.776 102.825 c -2.5 11.807 5.044 23.405 16.851 25.905 s 23.405 -5.046 25.905 -16.851 l 23.078 -108.975 c 0.851 -4.019 0.552 -8.196 -0.862 -12.052 L 145.498 263.185 z" stroke-linecap="round"/>
</g>
</g>
</g>
</svg>