<?xml version="1.0"?>
<svg version="1.1" xmlns="http://www.w3.org/2000/svg" width="324" height="48" style=""><path fill="#f56005" d="M19.592,34.724l0.42,2.352s1.12,0.588,2.744,0.588c1.792,0,3.388-0.784,3.388-2.268c0-3.276-9.464-1.82-9.464-8.736c0-3.864,3.052-5.936,7.112-5.936c3.164,0,6.16,1.12,6.16,1.12l-0.14,5.096l-2.576,0l-0.7-2.38s-1.26-0.42-2.464-0.42c-1.988,0-2.968,0.868-2.968,1.988c0,3.248,9.436,1.96,9.436,8.54c0,4.2-3.248,6.496-7.56,6.496c-3.164,0-6.244-1.064-6.244-1.064l0-5.376l2.856,0z M34.30628,28.06l0-2.24l6.44-0.14l0,9.66c0,1.54,0.448,2.24,1.708,2.24c1.82,0,3.164-1.512,3.164-1.512l0-7.308l-2.24-0.7l0-2.24l6.44-0.14l0,12.18l2.24,0.56l0,2.184l-5.908,0.196l-0.28-1.96s-2.24,2.24-4.9,2.24c-2.8,0-4.424-1.876-4.424-5.012l0-7.308z M61.48056,25.68l0.196,1.932s2.66-2.156,5.152-2.156c2.716,0,4.256,1.932,4.256,4.984l0,7.42l1.96,0.7l0,2.24l-7.7,0l0-2.24l1.54-0.7l0-6.664c0-1.288-0.728-2.24-1.904-2.24c-1.736,0-2.996,1.596-2.996,1.596l0,7.308l1.54,0.7l0,2.24l-7.98,0l0-2.24l2.24-0.7l0-9.1l-2.24-0.7l0-2.24z M88.57084,36.236l1.4,2.464c-0.7,0.616-2.884,2.38-6.02,2.38c-4.62,0-7.28-2.856-7.28-7.616c0-4.984,2.8-8.064,7.7-8.064c2.408,0,4.9,0.98,4.9,0.98l-0.14,4.592l-2.52,0l-0.392-1.988s-0.812-0.224-1.932-0.224c-2.016,0-3.276,1.344-3.276,4.144c0,3.052,1.176,4.816,3.5,4.816c1.96,0,3.192-0.98,4.06-1.484z M102.86512,40.8l-0.504-1.82s-2.156,2.1-4.536,2.1c-2.716,0-4.368-1.596-4.368-4.396c0-3.304,2.492-4.62,6.748-4.62l1.96,0l0-1.54c0-1.428-0.756-2.044-2.156-2.044c-1.428,0-2.464,0.42-2.464,0.42l-0.42,1.764l-2.52,0l-0.196-4.144s3.388-1.12,6.076-1.12c4.256,0,5.88,1.484,5.88,5.544l0,6.916l2.1,0.504l0,2.24z M102.16512,34.444l-1.596,0c-2.184,0-3.052,0.56-3.052,1.82c0,1.064,0.588,1.68,1.652,1.68c1.484,0,2.996-1.624,2.996-1.624l0-1.876z M117.9714,25.68l0.252,1.932s2.016-2.212,3.892-2.212c1.54,0,2.604,0.504,2.604,0.504l-0.224,5.376l-2.52,0l-0.42-2.38c-1.624,0-3.024,1.568-3.024,1.568l0,7.392l2.8,0.7l0,2.24l-9.24,0l0-2.24l2.24-0.7l0-9.1l-2.24-0.7l0-2.24z M141.44968,34.164l-9.296,0c0.168,2.24,1.456,3.556,3.388,3.556c2.324,0,4.704-1.316,4.704-1.316l1.204,2.324s-2.8,2.352-6.384,2.352c-4.816,0-7.28-2.8-7.28-7.56c0-4.9,2.772-8.12,7.476-8.12c4.172,0,6.356,2.576,6.356,6.58c0,1.064-0.168,2.1-0.168,2.184z M132.20968,31.56l5.068,0c0-1.596-0.672-2.8-2.296-2.8c-1.568,0-2.548,1.148-2.772,2.8z M154.05024,40.8l0-2.38l2.1-0.84l0-13.16l-2.1-0.84l0-2.38l8.68-0.14l0,2.52l-2.24,0.84l0,4.48l7.336,0l0-4.48l-2.24-0.84l0-2.38l8.68-0.14l0,2.52l-2.1,0.84l0,13.16l2.1,0.84l0,2.38l-8.68,0l0-2.38l2.24-0.84l0-5.32l-7.336,0l0,5.32l2.24,0.84l0,2.38l-8.68,0z M185.73252,25.4c4.536,0,7.056,2.744,7.056,7.56c0,5.04-2.94,8.12-7.476,8.12c-4.564,0-7.14-2.38-7.14-7.7c0-5.04,2.996-7.98,7.56-7.98z M185.59252,28.76c-2.044,0-3.08,1.12-3.08,4.48c0,3.08,0.896,4.48,2.94,4.48c2.016,0,2.996-1.26,2.996-4.62c0-2.856-0.84-4.34-2.856-4.34z M222.8188,38.56l0,2.24l-7.588,0l0-2.24l1.484-0.7l0-6.664c0-1.54-0.448-2.296-1.624-2.296c-1.82,0-3.108,1.456-3.108,1.456l0,7.504l1.456,0.7l0,2.24l-7.112,0l0-2.24l1.456-0.7l0-6.664c0-1.54-0.392-2.296-1.596-2.296c-1.82,0-3.136,1.456-3.136,1.456l0,7.504l1.484,0.7l0,2.24l-7.84,0l0-2.24l2.156-0.7l0-9.1l-2.128-0.7l0-2.24l5.852-0.14l0.196,1.988s2.436-2.268,4.9-2.268c1.988,0,3.22,0.924,3.864,2.408c0.476-0.476,2.576-2.408,5.068-2.408c2.94,0,4.312,1.904,4.312,5.04l0,7.42z M240.10908,34.164l-9.296,0c0.168,2.24,1.456,3.556,3.388,3.556c2.324,0,4.704-1.316,4.704-1.316l1.204,2.324s-2.8,2.352-6.384,2.352c-4.816,0-7.28-2.8-7.28-7.56c0-4.9,2.772-8.12,7.476-8.12c4.172,0,6.356,2.576,6.356,6.58c0,1.064-0.168,2.1-0.168,2.184z M230.86908,31.56l5.068,0c0-1.596-0.672-2.8-2.296-2.8c-1.568,0-2.548,1.148-2.772,2.8z M256.08336,36.236l1.4,2.464c-0.7,0.616-2.884,2.38-6.02,2.38c-4.62,0-7.28-2.856-7.28-7.616c0-4.984,2.8-8.064,7.7-8.064c2.408,0,4.9,0.98,4.9,0.98l-0.14,4.592l-2.52,0l-0.392-1.988s-0.812-0.224-1.932-0.224c-2.016,0-3.276,1.344-3.276,4.144c0,3.052,1.176,4.816,3.5,4.816c1.96,0,3.192-0.98,4.06-1.484z M270.37764,40.8l-0.504-1.82s-2.156,2.1-4.536,2.1c-2.716,0-4.368-1.596-4.368-4.396c0-3.304,2.492-4.62,6.748-4.62l1.96,0l0-1.54c0-1.428-0.756-2.044-2.156-2.044c-1.428,0-2.464,0.42-2.464,0.42l-0.42,1.764l-2.52,0l-0.196-4.144s3.388-1.12,6.076-1.12c4.256,0,5.88,1.484,5.88,5.544l0,6.916l2.1,0.504l0,2.24z M269.67764,34.444l-1.596,0c-2.184,0-3.052,0.56-3.052,1.82c0,1.064,0.588,1.68,1.652,1.68c1.484,0,2.996-1.624,2.996-1.624l0-1.876z M285.48392,25.68l0.252,1.932s2.016-2.212,3.892-2.212c1.54,0,2.604,0.504,2.604,0.504l-0.224,5.376l-2.52,0l-0.42-2.38c-1.624,0-3.024,1.568-3.024,1.568l0,7.392l2.8,0.7l0,2.24l-9.24,0l0-2.24l2.24-0.7l0-9.1l-2.24-0.7l0-2.24z M308.9622,34.164l-9.296,0c0.168,2.24,1.456,3.556,3.388,3.556c2.324,0,4.704-1.316,4.704-1.316l1.204,2.324s-2.8,2.352-6.384,2.352c-4.816,0-7.28-2.8-7.28-7.56c0-4.9,2.772-8.12,7.476-8.12c4.172,0,6.356,2.576,6.356,6.58c0,1.064-0.168,2.1-0.168,2.184z M299.7222,31.56l5.068,0c0-1.596-0.672-2.8-2.296-2.8c-1.568,0-2.548,1.148-2.772,2.8z"/><path fill="#" d=""/></svg>
